# xmcd
# Track frame offsets:
# 150
# 5240
# 16592
# 26530
# 38080
# 46497
# 57590
# 65225
# 78250
# 90285
# 101467
# 111570
#
# Disc length: 1588 seconds
# Revision: 0
# Processed by: cddbd v1.4PL0 Copyright (c) Steve Scherf et al.
# Submitted via: VisiTrax 2.9.5.180 - For more info visit www.synapsa.com
#
DISCID=9506320c
DTITLE=Lloyd Green - Cool steel man
DYEAR=1993
DGENRE=
TTITLE0=Cool steel man
TTITLE1=Halfway to paradise
TTITLE2=Crazy arms
TTITLE3=She still comes around
TTITLE4=Too many dollars not enough sense
TTITLE5=Greenblue
TTITLE6=Bar hoppin'
TTITLE7=Big girls don't cry
TTITLE8=Harper Valley PTA
TTITLE9=Take these chains from my heart
TTITLE10=Dreams of the everyday housewife
TTITLE11=Petals
EXTD=
EXTT0=
EXTT1=
EXTT2=
EXTT3=
EXTT4=
EXTT5=
EXTT6=
EXTT7=
EXTT8=
EXTT9=
EXTT10=
EXTT11=
PLAYORDER=
